<svg width="82" height="49" viewBox="0 0 82 49" fill="none" xmlns="http://www.w3.org/2000/svg">
<path fill-rule="evenodd" clip-rule="evenodd" d="M41.3877 48.8817H53.8957V44.1474L53.8957 39.9433L50.2168 35.1522V44.1474H44.9744V29.5306L51.8197 20.7215L49.2577 17.4245L47.875 19.2039L44.7905 15.2344V4.7343H50.2168V14.9131H50.2169L50.2169 14.9131L57.1296 23.8089L53.2074 28.7883L50.853 25.7584L48.2647 29.0893L63.6448 48.8817H77.0728V48.8542L81.8817 49L63.9496 25.9236L61.3613 29.2545L72.8422 44.029H65.0506L55.5289 31.7758L76.4104 5.26634L76.4292 5.2669L77.6492 3.74916L79.2895 1.61126L80.4655 0.118351H80.4349H75.7907H62.7252V0.133462L62.7135 0.118371L53.8957 11.4658V4.7343H53.8957V0H41.3877V17.5508L45.2736 22.5515L41.3877 27.5522V48.8817ZM64.2027 4.89731L71.8443 5.12831L59.7355 20.5007L55.9066 15.5734L64.2027 4.89731Z" fill="black"/>
<path fill-rule="evenodd" clip-rule="evenodd" d="M40.4941 48.8817H27.9861V44.1474L27.9861 39.9433L31.665 35.1522V44.1474H36.9075V29.5306L30.0621 20.7215L32.6241 17.4245L34.0068 19.2039L37.0913 15.2344V4.7343H31.665V14.9131H31.6649L31.665 14.9131L24.7522 23.8089L28.6745 28.7883L31.0289 25.7584L33.6172 29.0893L18.237 48.8817H4.80901V48.8542L0.000183105 49L17.9322 25.9236L20.5205 29.2545L9.0396 44.029H16.8313L26.3529 31.7758L5.47141 5.26634L5.45266 5.2669L4.23259 3.74916L2.59231 1.61126L1.41634 0.118351H1.44689H6.09118H19.1566V0.133462L19.1683 0.118371L27.9861 11.4658V4.7343H27.9861V0H40.4941V17.5508L36.6082 22.5515L40.4941 27.5522V48.8817ZM17.6792 4.89731L10.0375 5.12831L22.1464 20.5007L25.9753 15.5734L17.6792 4.89731Z" fill="black"/>
<rect x="1.46328" width="2.38476" height="2.38476" transform="matrix(0.613595 -0.789621 0.613595 0.789621 38.5503 23.6222)" fill="black" stroke="#FF6200" stroke-width="2.38476"/>
</svg>
